<?xml version="1.0" encoding="utf-8"?>
<!-- Generator: Adobe Illustrator 26.1.0, SVG Export Plug-In . SVG Version: 6.00 Build 0)  -->
<svg version="1.1" id="圖層_1" xmlns="http://www.w3.org/2000/svg" xmlns:xlink="http://www.w3.org/1999/xlink" x="0px" y="0px"
	 viewBox="0 0 657.5 127.1" style="enable-background:new 0 0 657.5 127.1;" xml:space="preserve">
<style type="text/css">
	.st0{fill:#CECECE;}
	.st1{fill:#E2E2E1;}
	.st2{fill:#ADADAD;}
	.st3{fill:url(#SVGID_1_);}
	.st4{fill:url(#SVGID_00000006672602350613374690000016602606898312851612_);}
	.st5{fill:#F0ECEC;}
	.st6{fill:#FFFFFF;}
	.st7{font-family:'MicrosoftYaHei-Bold';}
	.st8{font-size:90.0003px;}
	.st9{letter-spacing:18;}
	.st10{fill:none;}
	.st11{fill:#C6C6C6;}
</style>
<g>
	<path class="st0" d="M250.7,80.4L282.6,37h-44.9c4.8,0.8,9.1,2.6,12.8,5.4c7.1,5.3,8.6,11.7,8.6,16.1c0,4.4-1.5,10.7-8.6,16.1
		c-5.2,3.9-11.5,5.9-18.8,5.9h-29c-7.3,0-13.6-2-18.8-5.9c-7.1-5.3-8.6-11.7-8.6-16.1V36.8c0-4.4,1.5-10.7,8.6-16.1
		c5.2-3.9,11.5-5.9,18.8-5.9h124.6l-48.1,65.6H250.7z"/>
	<path class="st0" d="M14.5,80.4v-22c0-4.4,1.5-10.7,8.6-16.1c3.7-2.8,8-4.6,12.8-5.4H21.7V14.8h49.1c7.3,0,13.6,2,18.8,5.9
		c2.1,1.5,3.7,3.2,4.9,4.8V14.8H176L159.7,37h-2.9c4.8,0.8,9.1,2.6,12.8,5.4c7.1,5.3,8.6,11.7,8.6,16.1c0,4.4-1.5,10.7-8.6,16.1
		c-5.2,3.9-11.5,5.9-18.8,5.9H14.5z M115.9,58.2c-4.8-0.8-9.1-2.6-12.8-5.4c-3.3-2.5-5.4-5.2-6.7-7.9c-1.3,2.7-3.4,5.4-6.7,7.9
		c-3.7,2.8-8,4.6-12.8,5.4H115.9z"/>
</g>
<g>
	<polygon class="st1" points="219.6,14.8 213.3,21.1 222.4,30.1 231.2,21.4 224.6,14.8 	"/>
	
		<rect x="181" y="49.9" transform="matrix(0.7071 -0.7071 0.7071 0.7071 14.9985 148.8369)" class="st1" width="12.4" height="12.8"/>
	<path class="st1" d="M184,20.7c-1.2,0.9-2.3,1.9-3.2,2.9l6,6l8.8-8.8l-4.1-4.1C188.7,17.7,186.3,19,184,20.7z"/>
	<path class="st1" d="M202.8,14.8c-0.4,0-0.8,0-1.2,0l-6,6l9,9l8.8-8.8l-6.3-6.3H202.8z"/>
	
		<rect x="180.7" y="32.1" transform="matrix(0.7071 -0.7071 0.7071 0.7071 27.5116 143.4384)" class="st1" width="12.4" height="12.8"/>
	<path class="st1" d="M175.4,36.8V41l2.6-2.6l-2.6-2.6C175.4,36.1,175.4,36.5,175.4,36.8z"/>
	<polygon class="st1" points="264.4,37 258,30.6 251.6,37 	"/>
	<path class="st1" d="M257.7,65.5c1-2.6,1.4-5,1.4-7c0-2.5-0.5-5.6-2.2-8.7l-7.5,7.5L257.7,65.5z"/>
	
		<rect x="198.5" y="32.4" transform="matrix(0.7071 -0.7071 0.7071 0.7071 32.5424 156.1038)" class="st1" width="12.4" height="12.8"/>
	
		<rect x="234.4" y="50.7" transform="matrix(0.7071 -0.7071 0.7071 0.7071 30.0909 186.8331)" class="st1" width="12.4" height="12.8"/>
	<polygon class="st1" points="214.1,74.5 220.1,80.4 226.3,80.4 231.9,74.8 222.9,65.7 	"/>
	<polygon class="st1" points="274.9,47.5 276.1,48.7 284.8,39.9 282.3,37.4 	"/>
	<polygon class="st1" points="284.6,22.1 293.6,31.2 302.4,22.4 294.8,14.8 291.9,14.8 	"/>
	<path class="st1" d="M240.7,66l-8.8,8.8l5.3,5.3c4.6-0.7,8.7-2.3,12.3-4.8l0.2-0.2L240.7,66z"/>
	<path class="st1" d="M237.7,37h9.1l-6.6-6.6l-8.8,8.8l9,9l7.5-7.5C244.8,38.9,241.4,37.6,237.7,37z"/>
	
		<rect x="216.6" y="50.4" transform="matrix(0.7071 -0.7071 0.7071 0.7071 25.0601 174.1677)" class="st1" width="12.4" height="12.8"/>
	<polygon class="st1" points="281.9,37 275.8,30.9 269.7,37 	"/>
	<polygon class="st1" points="266.8,21.9 275.8,30.9 284.6,22.1 277.2,14.8 273.8,14.8 	"/>
	<path class="st1" d="M196.3,74.2l6.2,6.2c0.1,0,0.2,0,0.3,0h5.4l5.9-5.9l-9-9L196.3,74.2z"/>
	<polygon class="st1" points="285.1,57.7 291.3,64 298.7,53.8 293.9,49 	"/>
	<polygon class="st1" points="302.6,40.2 306.2,43.7 313.6,33.6 311.4,31.4 	"/>
	<polygon class="st1" points="267.5,75.3 272.7,80.4 279.2,80.4 283.9,74.1 276.3,66.5 	"/>
	
		<rect x="287.5" y="33.7" transform="matrix(0.7071 -0.7071 0.7071 0.7071 57.6964 219.4308)" class="st1" width="12.4" height="12.8"/>
	<polygon class="st1" points="268.3,56.5 267.4,57.6 276.3,66.5 285.1,57.7 276.1,48.7 	"/>
	<polygon class="st1" points="260,67.8 252.6,77.9 255.2,80.4 262.4,80.4 267.5,75.3 	"/>
	<polygon class="st1" points="302.4,22.4 311.4,31.4 320.2,22.7 312.3,14.8 309.9,14.8 	"/>
	<path class="st1" d="M180.8,71.7c0.9,1,2,1.9,3.2,2.8c2.4,1.8,5,3.2,7.9,4.1l4.5-4.5l-9-9L180.8,71.7z"/>
	<polygon class="st1" points="249,21.6 258,30.6 266.8,21.9 259.7,14.8 255.8,14.8 	"/>
	<polygon class="st1" points="242.2,14.8 237.7,14.8 231.2,21.4 240.2,30.4 249,21.6 	"/>
	
		<rect x="198.8" y="50.2" transform="matrix(0.7071 -0.7071 0.7071 0.7071 20.0293 161.5023)" class="st1" width="12.4" height="12.8"/>
	
		<rect x="216.3" y="32.6" transform="matrix(0.7071 -0.7071 0.7071 0.7071 37.5732 168.7692)" class="st1" width="12.4" height="12.8"/>
	<polygon class="st1" points="70.9,19 66.7,14.8 57.1,14.8 53.1,18.8 62.1,27.8 	"/>
	
		<rect x="38.3" y="30" transform="matrix(0.7071 -0.7071 0.7071 0.7071 -12.7347 42.1151)" class="st1" width="12.4" height="12.8"/>
	<polygon class="st1" points="115.6,28.6 124.3,19.8 119.3,14.8 111.2,14.8 106.5,19.5 	"/>
	<path class="st1" d="M172,44.4c-0.7-0.7-1.5-1.3-2.4-2c-2.7-2.1-5.8-3.6-9.2-4.6l-0.3,0.3l9,9L172,44.4z"/>
	<polygon class="st1" points="172,14.8 174.3,17.1 176,14.8 	"/>
	<polygon class="st1" points="125.1,73.2 132.3,80.4 135.9,80.4 142.9,73.5 133.9,64.4 	"/>
	<polygon class="st1" points="35.3,18.5 31.6,14.8 21.7,14.8 21.7,22.5 26.5,27.3 	"/>
	<polygon class="st1" points="44.3,27.5 53.1,18.8 49.2,14.8 39,14.8 35.3,18.5 	"/>
	<polygon class="st1" points="142.1,20.1 136.9,14.8 129.3,14.8 124.3,19.8 133.4,28.8 	"/>
	
		<rect x="20.7" y="47.6" transform="matrix(0.7071 -0.7071 0.7071 0.7071 -30.2786 34.8482)" class="st1" width="12.4" height="12.8"/>
	<polygon class="st1" points="34.9,37 35.6,36.3 26.5,27.3 21.7,32.1 21.7,37 	"/>
	<polygon class="st1" points="14.5,67.9 14.5,75.4 18.3,71.6 	"/>
	<path class="st1" d="M103.1,52.8c1.2,0.9,2.5,1.7,3.8,2.4l0.1-0.1l-9-9l-0.6,0.6C98.7,48.8,100.5,50.9,103.1,52.8z"/>
	<path class="st1" d="M15.8,51.6c-0.8,2-1.2,4-1.3,5.7l3.5-3.5L15.8,51.6z"/>
	<polygon class="st1" points="81.7,80.4 89.5,72.7 80.5,63.7 71.7,72.4 79.7,80.4 	"/>
	
		<rect x="109.5" y="31.1" transform="matrix(0.7071 -0.7071 0.7071 0.7071 7.3885 92.7767)" class="st1" width="12.4" height="12.8"/>
	<path class="st1" d="M34.6,37.3c-4,0.8-7.7,2.4-10.9,4.7l3.1,3.1L34.6,37.3z"/>
	<polygon class="st1" points="92.6,58.2 98.3,63.9 103.9,58.2 	"/>
	<path class="st1" d="M85.9,58.2h-9.1c4.2-0.7,8-2.2,11.4-4.4l-8-8l-8.8,8.8l9,9L85.9,58.2z"/>
	<polygon class="st1" points="45.6,80.4 53.9,72.2 44.9,63.1 36.1,71.9 44.6,80.4 	"/>
	
		<rect x="56.3" y="48.1" transform="matrix(0.7071 -0.7071 0.7071 0.7071 -20.217 60.179)" class="st1" width="12.4" height="12.8"/>
	<path class="st1" d="M151.7,64.7l-8.8,8.8l7,7h0.9c1.1,0,2.2-0.1,3.3-0.2l6.6-6.6L151.7,64.7z"/>
	
		<rect x="73.9" y="30.6" transform="matrix(0.7071 -0.7071 0.7071 0.7071 -2.6731 67.4459)" class="st1" width="12.4" height="12.8"/>
	
		<rect x="127.3" y="31.3" transform="matrix(0.7071 -0.7071 0.7071 0.7071 12.4193 105.4421)" class="st1" width="12.4" height="12.8"/>
	<polygon class="st1" points="117.9,80.4 125.1,73.2 116.1,64.2 107.3,72.9 114.8,80.4 	"/>
	<polygon class="st1" points="159.9,20.3 154.4,14.8 147.4,14.8 142.1,20.1 151.2,29.1 	"/>
	<polygon class="st1" points="101.8,14.8 94.5,14.8 94.5,25.1 97.8,28.3 106.5,19.5 	"/>
	
		<rect x="91.7" y="30.8" transform="matrix(0.7071 -0.7071 0.7071 0.7071 2.3577 80.1113)" class="st1" width="12.4" height="12.8"/>
	
		<rect x="145.4" y="49.4" transform="matrix(0.7071 -0.7071 0.7071 0.7071 4.9369 123.506)" class="st1" width="12.4" height="12.8"/>
	<path class="st1" d="M160.7,73.7l3.8,3.8c1.8-0.8,3.5-1.8,5.1-3c2-1.5,3.6-3.1,4.8-4.7l-4.9-4.9L160.7,73.7z"/>
	
		<rect x="38.5" y="47.8" transform="matrix(0.7071 -0.7071 0.7071 0.7071 -25.2478 47.5136)" class="st1" width="12.4" height="12.8"/>
	
		<rect x="56.1" y="30.3" transform="matrix(0.7071 -0.7071 0.7071 0.7071 -7.7039 54.7805)" class="st1" width="12.4" height="12.8"/>
	
		<rect x="127.5" y="49.1" transform="matrix(0.7071 -0.7071 0.7071 0.7071 -9.384702e-02 110.8406)" class="st1" width="12.4" height="12.8"/>
	<path class="st1" d="M88.2,19.8c-3.9-2.6-8.4-4.2-13.4-4.7l-4,4l9,9L88.2,19.8z"/>
	<polygon class="st1" points="27.6,80.4 36.1,71.9 27.1,62.9 18.3,71.6 27.1,80.4 	"/>
	<path class="st1" d="M160.5,55.9l9,9l5.9-5.9c0-0.2,0-0.4,0-0.6v-5.2l-6.2-6.2L160.5,55.9z"/>
	<polygon class="st1" points="174.3,17.1 172,14.8 165.4,14.8 159.9,20.3 166.9,27.3 	"/>
	<polygon class="st1" points="99.8,80.4 107.3,72.9 98.3,63.9 89.5,72.7 97.3,80.4 	"/>
	<path class="st1" d="M160.2,38.1l-0.5-0.5c-1-0.3-1.9-0.5-2.9-0.6h2.3l-7.9-7.9l-8.8,8.8l9,9L160.2,38.1z"/>
	<path class="st1" d="M115.9,58.2h-5.8l5.9,5.9l8.8-8.8l-9-9l-8.8,8.8l0.4,0.4C110,56.8,112.9,57.7,115.9,58.2z"/>
	<polygon class="st1" points="63.7,80.4 71.7,72.4 62.7,63.4 53.9,72.2 62.2,80.4 	"/>
	<path class="st1" d="M175.4,53.3v5.2c0,0.2,0,0.4,0,0.6l2.7-2.7c0-0.1,0-0.2,0-0.4L175.4,53.3z"/>
</g>
<g>
	<path d="M298.5,525.5h-2.4h-41c-6,0-11.2,1.6-15.4,4.8c-4.2,3.2-6.3,7-6.3,11.5v21.7c0,4.5,2.1,8.4,6.3,11.5
		c4.2,3.2,9.3,4.8,15.4,4.8h29c6,0,11.2-1.6,15.4-4.8c4.2-3.2,6.3-7,6.3-11.5c0-4.5-2.1-8.4-6.3-11.5c-4.2-3.2-9.4-4.8-15.4-4.8
		h-36.2v-5.4c0-1.5,0.7-2.8,2.1-3.9c1.4-1,3.1-1.6,5.1-1.6h41h2.4H346l-31.9,43.4h14.5l39.8-54.3H298.5z M284,558
		c2,0,3.8,0.5,5.1,1.6c1.4,1,2.1,2.3,2.1,3.9s-0.7,2.8-2.1,3.9c-1.4,1-3.1,1.6-5.1,1.6h-29c-2,0-3.8-0.5-5.1-1.6
		c-1.4-1-2.1-2.3-2.1-3.9V558H284z"/>
	<path d="M218.5,551.9c-4.2-3.2-9.4-4.8-15.4-4.8h-1.9h-14.5h-12.6c-2,0-3.8-0.5-5.1-1.6c-1.4-1-2.1-2.3-2.1-3.9v-5.4h27.8h14.4
		l8-10.9h-64.7v3.1v13.2c0,4.5,2.1,8.4,6.3,11.5c4.2,3.2,9.3,4.8,15.4,4.8h4.6h14.5h9.9c2,0,3.8,0.5,5.1,1.6c1.4,1,2.1,2.3,2.1,3.9
		s-0.7,2.8-2.1,3.9c-1.4,1-3.1,1.6-5.1,1.6h-17.9H181h-10.2h-11.1H86.9v-5.4c0-1.5,0.7-2.8,2.1-3.9c1.4-1,3.1-1.6,5.1-1.6h29
		c6,0,11.2-1.6,15.4-4.8c4.2-3.2,6.3-7,6.3-11.5c0-4.5-2.1-8.4-6.3-11.5c-4.2-3.2-9.4-4.8-15.4-4.8H79.7v10.9h43.4
		c2,0,3.8,0.5,5.1,1.6c1.4,1,2.1,2.3,2.1,3.9s-0.7,2.8-2.1,3.9c-1.4,1-3.1,1.6-5.1,1.6h-29c-6,0-11.2,1.6-15.4,4.8
		c-4.2,3.2-6.3,7-6.3,11.5v16.3h87.2H181h22.1c6,0,11.2-1.6,15.4-4.8c4.2-3.2,6.3-7,6.3-11.5C224.8,558.9,222.7,555.1,218.5,551.9z"
		/>
</g>
<g>
	<path class="st2" d="M105.8,614.9l-0.3,7.1h-22v-6.6l4.9-3.5c0.7-0.5,2.1-1.6,4-3.2s3.3-2.9,3.9-3.8c0.6-0.9,0.9-1.8,0.9-2.8
		c0-0.9-0.3-1.7-0.8-2.2c-0.5-0.6-1.2-0.8-2.1-0.8c-2.1,0-3.3,1.7-3.6,5l-7.3-1.4c0.5-3.4,1.9-5.9,4-7.6c2.1-1.7,4.6-2.5,7.5-2.5
		c3.1,0,5.7,0.8,7.7,2.5c2,1.7,3,3.9,3,6.7c0,1.9-0.5,3.6-1.6,5.3c-1.1,1.7-4.2,4.2-9.5,7.7H105.8z"/>
	<path class="st2" d="M138.5,600.2h-12.1l-0.3,4.1c1.6-1.1,3.3-1.6,5.2-1.6c2.5,0,4.7,0.9,6.6,2.6c1.9,1.7,2.8,4,2.8,6.9
		c0,3-1.1,5.5-3.3,7.4c-2.2,1.9-5,2.9-8.4,2.9c-3,0-5.5-0.8-7.7-2.3c-2.2-1.6-3.5-3.7-4-6.5l7.5-0.9c0.5,2.1,1.8,3.2,4,3.2
		c1.1,0,2-0.3,2.6-1c0.6-0.7,0.9-1.5,0.9-2.5c0-1.1-0.4-2-1.1-2.6c-0.7-0.6-1.6-0.9-2.6-0.9c-1.5,0-2.6,0.6-3.4,1.8l-6.6-0.9
		l1.3-16.6h19.3L138.5,600.2z"/>
	<path class="st2" d="M174,601.2l-7.4,0.9c-0.2-2.3-1.2-3.5-2.8-3.5c-2.4,0-3.6,2.5-3.7,7.5c1.1-1.8,3.1-2.7,5.8-2.7
		c2.6,0,4.7,0.8,6.4,2.5c1.6,1.7,2.4,3.8,2.4,6.5c0,2.8-1,5.1-3.1,7c-2.1,1.9-4.7,2.9-8,2.9c-2.4,0-4.5-0.6-6.4-1.7
		c-1.9-1.1-3.3-2.8-4.2-5.1c-0.9-2.2-1.4-4.7-1.4-7.4c0-4.5,1-8.3,3.1-11.2s5-4.4,8.9-4.4c2.7,0,5,0.7,6.9,2.2
		C172.4,596.3,173.6,598.5,174,601.2z M163.3,616.5c1,0,1.8-0.3,2.3-1c0.6-0.7,0.9-1.5,0.9-2.4c0-0.9-0.3-1.8-0.9-2.5
		c-0.6-0.7-1.3-1.1-2.3-1.1c-1,0-1.8,0.3-2.4,1c-0.6,0.7-0.9,1.5-0.9,2.5c0,0.9,0.3,1.8,0.9,2.4
		C161.6,616.2,162.4,616.5,163.3,616.5z"/>
	<path class="st2" d="M207.8,593.1v5.4c-2.1,2.5-3.9,5.8-5.4,9.9c-1.5,4.1-2.3,8-2.3,11.8c0,0.4,0,1,0.1,1.8h-9.5
		c0-3.4,0.8-7.1,2.5-11.1s3.9-7.5,6.7-10.5h-13.4l0.6-7.2H207.8z"/>
	<path class="st2" d="M225.7,614.2v7.7h-8v-7.7H225.7z"/>
	<path class="st2" d="M254.7,610.9l8.1,0.5c-0.4,3.5-1.7,6.3-3.9,8.2c-2.2,1.9-5,2.8-8.2,2.8c-3.9,0-7.1-1.3-9.5-3.9
		c-2.4-2.6-3.6-6.2-3.6-10.8c0-4.5,1.1-8.2,3.4-11c2.3-2.8,5.5-4.2,9.6-4.2c3.8,0,6.8,1.1,8.8,3.2c2.1,2.1,3.2,4.9,3.5,8.4l-8.3,0.4
		c0-1.9-0.4-3.3-1.1-4.2c-0.7-0.9-1.6-1.3-2.6-1.3c-2.8,0-4.2,2.8-4.2,8.4c0,3.1,0.4,5.3,1.1,6.4c0.7,1.1,1.7,1.7,3.1,1.7
		C253.1,615.7,254.4,614.1,254.7,610.9z"/>
	<path class="st2" d="M287.2,622.4c-4.1,0-7.4-1.3-9.9-4s-3.8-6.3-3.8-10.8c0-4.3,1.2-7.9,3.7-10.7c2.4-2.8,5.8-4.2,10.2-4.2
		c4,0,7.3,1.3,9.8,4c2.5,2.7,3.8,6.2,3.8,10.6c0,4.6-1.3,8.3-3.8,11C294.6,621,291.3,622.4,287.2,622.4z M287.2,615.8
		c1.5,0,2.6-0.7,3.2-2c0.7-1.3,1-3.7,1-7.2c0-5-1.3-7.5-4-7.5c-2.9,0-4.4,2.9-4.4,8.6C283,613.1,284.4,615.8,287.2,615.8z"/>
	<path class="st2" d="M344.8,593.1V622h-8.2v-20.7l-5.3,20.7h-5.6l-5.6-20.7V622h-6.6v-28.9H325l4.2,15.4l4-15.4H344.8z"/>
</g>
<rect x="-272.6" y="-140.3" class="st10" width="5.6" height="0"/>
<rect x="-485.2" y="-1000.1" class="st10" width="5.6" height="0"/>
<text transform="matrix(1 0 0 1 391.3706 606.3105)" class="st7 st8 st9">开奖网</text>
<g>
	<linearGradient id="SVGID_1_" gradientUnits="userSpaceOnUse" x1="38.8753" y1="16.2261" x2="283.4635" y2="51.1672">
		<stop  offset="0" style="stop-color:#EA5514"/>
		<stop  offset="1" style="stop-color:#C30D23"/>
	</linearGradient>
	<path class="st3" d="M246.6,20.5h-2.4h-41c-6,0-11.2,1.6-15.4,4.8c-4.2,3.2-6.3,7-6.3,11.5v21.7c0,4.5,2.1,8.4,6.3,11.5
		c4.2,3.2,9.3,4.8,15.4,4.8h29c6,0,11.2-1.6,15.4-4.8c4.2-3.2,6.3-7,6.3-11.5c0-4.5-2.1-8.4-6.3-11.5c-4.2-3.2-9.4-4.8-15.4-4.8
		h-36.2v-5.4c0-1.5,0.7-2.8,2.1-3.9c1.4-1,3.1-1.6,5.1-1.6h41h2.4h47.6l-31.9,43.4h14.5l39.8-54.3H246.6z M232.1,53.1
		c2,0,3.8,0.5,5.1,1.6c1.4,1,2.1,2.3,2.1,3.9s-0.7,2.8-2.1,3.9c-1.4,1-3.1,1.6-5.1,1.6h-29c-2,0-3.8-0.5-5.1-1.6
		c-1.4-1-2.1-2.3-2.1-3.9v-5.4H232.1z"/>
	
		<linearGradient id="SVGID_00000014593837427727964950000003848431653842722750_" gradientUnits="userSpaceOnUse" x1="35.5587" y1="39.4422" x2="280.1469" y2="74.3834">
		<stop  offset="0" style="stop-color:#EA5514"/>
		<stop  offset="1" style="stop-color:#C30D23"/>
	</linearGradient>
	<path style="fill:url(#SVGID_00000014593837427727964950000003848431653842722750_);" d="M166.6,47c-4.2-3.2-9.4-4.8-15.4-4.8h-1.9
		h-14.5h-12.6c-2,0-3.8-0.5-5.1-1.6c-1.4-1-2.1-2.3-2.1-3.9v-5.4h27.8h14.4l8-10.9h-64.7v3.1v13.2c0,4.5,2.1,8.4,6.3,11.5
		c4.2,3.2,9.3,4.8,15.4,4.8h4.6h14.5h9.9c2,0,3.8,0.5,5.1,1.6c1.4,1,2.1,2.3,2.1,3.9s-0.7,2.8-2.1,3.9c-1.4,1-3.1,1.6-5.1,1.6h-17.9
		h-4.2h-10.2h-11.1H35v-5.4c0-1.5,0.7-2.8,2.1-3.9c1.4-1,3.1-1.6,5.1-1.6h29c6,0,11.2-1.6,15.4-4.8c4.2-3.2,6.3-7,6.3-11.5
		c0-4.5-2.1-8.4-6.3-11.5c-4.2-3.2-9.4-4.8-15.4-4.8H27.8v10.9h43.4c2,0,3.8,0.5,5.1,1.6c1.4,1,2.1,2.3,2.1,3.9s-0.7,2.8-2.1,3.9
		c-1.4,1-3.1,1.6-5.1,1.6h-29c-6,0-11.2,1.6-15.4,4.8c-4.2,3.2-6.3,7-6.3,11.5v16.3h87.2h21.3h22.1c6,0,11.2-1.6,15.4-4.8
		c4.2-3.2,6.3-7,6.3-11.5C172.9,54,170.8,50.1,166.6,47z"/>
</g>
<g>
	<path class="st5" d="M44.2,111.9l-0.3,7.1h-22v-6.6l4.9-3.5c0.7-0.5,2.1-1.6,4-3.2s3.3-2.9,3.9-3.8c0.6-0.9,0.9-1.8,0.9-2.8
		c0-0.9-0.3-1.7-0.8-2.2c-0.5-0.6-1.2-0.8-2.1-0.8c-2.1,0-3.3,1.7-3.6,5l-7.3-1.4c0.5-3.4,1.9-5.9,4-7.6c2.1-1.7,4.6-2.5,7.5-2.5
		c3.1,0,5.7,0.8,7.7,2.5c2,1.7,3,3.9,3,6.7c0,1.9-0.5,3.6-1.6,5.3c-1.1,1.7-4.2,4.2-9.5,7.7H44.2z"/>
	<path class="st5" d="M76.9,97.3H64.8l-0.3,4.1c1.6-1.1,3.3-1.6,5.2-1.6c2.5,0,4.7,0.9,6.6,2.6c1.9,1.7,2.8,4,2.8,6.9
		c0,3-1.1,5.5-3.3,7.4c-2.2,1.9-5,2.9-8.4,2.9c-3,0-5.5-0.8-7.7-2.3c-2.2-1.6-3.5-3.7-4-6.5l7.5-0.9c0.5,2.1,1.8,3.2,4,3.2
		c1.1,0,2-0.3,2.6-1c0.6-0.7,0.9-1.5,0.9-2.5c0-1.1-0.4-2-1.1-2.6c-0.7-0.6-1.6-0.9-2.6-0.9c-1.5,0-2.6,0.6-3.4,1.8l-6.6-0.9
		l1.3-16.6h19.3L76.9,97.3z"/>
	<path class="st5" d="M112.4,98.3l-7.4,0.9c-0.2-2.3-1.2-3.5-2.8-3.5c-2.4,0-3.6,2.5-3.7,7.5c1.1-1.8,3.1-2.7,5.8-2.7
		c2.6,0,4.7,0.8,6.4,2.5c1.6,1.7,2.4,3.8,2.4,6.5c0,2.8-1,5.1-3.1,7c-2.1,1.9-4.7,2.9-8,2.9c-2.4,0-4.5-0.6-6.4-1.7
		c-1.9-1.1-3.3-2.8-4.2-5.1c-0.9-2.2-1.4-4.7-1.4-7.4c0-4.5,1-8.3,3.1-11.2s5-4.4,8.9-4.4c2.7,0,5,0.7,6.9,2.2
		C110.9,93.4,112,95.5,112.4,98.3z M101.8,113.6c1,0,1.8-0.3,2.3-1c0.6-0.7,0.9-1.5,0.9-2.4c0-0.9-0.3-1.8-0.9-2.5
		c-0.6-0.7-1.3-1.1-2.3-1.1c-1,0-1.8,0.3-2.4,1c-0.6,0.7-0.9,1.5-0.9,2.5c0,0.9,0.3,1.8,0.9,2.4C100,113.3,100.8,113.6,101.8,113.6z
		"/>
	<path class="st5" d="M146.2,90.1v5.4c-2.1,2.5-3.9,5.8-5.4,9.9c-1.5,4.1-2.3,8-2.3,11.8c0,0.4,0,1,0.1,1.8h-9.5
		c0-3.4,0.8-7.1,2.5-11.1s3.9-7.5,6.7-10.5h-13.4l0.6-7.2H146.2z"/>
	<path class="st5" d="M164.1,111.3v7.7h-8v-7.7H164.1z"/>
	<path class="st5" d="M193.2,108l8.1,0.5c-0.4,3.5-1.7,6.3-3.9,8.2c-2.2,1.9-5,2.8-8.2,2.8c-3.9,0-7.1-1.3-9.5-3.9
		c-2.4-2.6-3.6-6.2-3.6-10.8c0-4.5,1.1-8.2,3.4-11c2.3-2.8,5.5-4.2,9.6-4.2c3.8,0,6.8,1.1,8.8,3.2c2.1,2.1,3.2,4.9,3.5,8.4l-8.3,0.4
		c0-1.9-0.4-3.3-1.1-4.2c-0.7-0.9-1.6-1.3-2.6-1.3c-2.8,0-4.2,2.8-4.2,8.4c0,3.1,0.4,5.3,1.1,6.4c0.7,1.1,1.7,1.7,3.1,1.7
		C191.6,112.8,192.9,111.2,193.2,108z"/>
	<path class="st5" d="M225.7,119.5c-4.1,0-7.4-1.3-9.9-4s-3.8-6.3-3.8-10.8c0-4.3,1.2-7.9,3.7-10.7c2.4-2.8,5.8-4.2,10.2-4.2
		c4,0,7.3,1.3,9.8,4c2.5,2.7,3.8,6.2,3.8,10.6c0,4.6-1.3,8.3-3.8,11C233,118.1,229.7,119.5,225.7,119.5z M225.6,112.9
		c1.5,0,2.6-0.7,3.2-2c0.7-1.3,1-3.7,1-7.2c0-5-1.3-7.5-4-7.5c-2.9,0-4.4,2.9-4.4,8.6C221.4,110.2,222.8,112.9,225.6,112.9z"/>
	<path class="st5" d="M283.2,90.1V119H275V98.4l-5.3,20.7H264l-5.6-20.7V119h-6.6V90.1h11.6l4.2,15.4l4-15.4H283.2z"/>
</g>
<rect x="-324.5" y="-645.2" class="st10" width="5.6" height="0"/>
<text transform="matrix(1 0 0 1 343.3334 96.2487)" class="st6 st7 st8 st9">开奖网</text>
<rect x="-462.5" y="470.9" transform="matrix(0.7071 -0.7071 0.7071 0.7071 -471.1173 -182.8577)" class="st10" width="12.4" height="12.8"/>
<rect x="-471.3" y="479.6" transform="matrix(0.7071 -0.7071 0.7071 0.7071 -479.8892 -186.4911)" class="st10" width="12.4" height="12.8"/>
<rect x="-497.8" y="488.2" transform="matrix(0.7071 -0.7071 0.7071 0.7071 -493.6919 -202.79)" class="st10" width="12.4" height="12.8"/>
<rect x="-488.8" y="497.2" transform="matrix(0.7071 -0.7071 0.7071 0.7071 -497.4331 -193.758)" class="st10" width="12.4" height="12.8"/>
<rect x="-480" y="488.4" transform="matrix(0.7071 -0.7071 0.7071 0.7071 -488.6612 -190.1246)" class="st10" width="12.4" height="12.8"/>
<rect x="-436.2" y="444.6" transform="matrix(0.7071 -0.7071 0.7071 0.7071 -444.8015 -171.9573)" class="st10" width="12.4" height="12.8"/>
<rect x="-453.7" y="462.1" transform="matrix(0.7071 -0.7071 0.7071 0.7071 -462.3453 -179.2242)" class="st10" width="12.4" height="12.8"/>
<rect x="-427.4" y="435.8" transform="matrix(0.7071 -0.7071 0.7071 0.7071 -436.0295 -168.3238)" class="st10" width="12.4" height="12.8"/>
<rect x="-444.9" y="453.3" transform="matrix(0.7071 -0.7071 0.7071 0.7071 -453.5734 -175.5907)" class="st10" width="12.4" height="12.8"/>
<rect x="-543" y="443" transform="matrix(0.7071 -0.7071 0.7071 0.7071 -474.9861 -247.9498)" class="st10" width="12.4" height="12.8"/>
<rect x="-506.9" y="479.1" transform="matrix(0.7071 -0.7071 0.7071 0.7071 -489.9508 -211.8219)" class="st10" width="12.4" height="12.8"/>
<rect x="-515.9" y="470.1" transform="matrix(0.7071 -0.7071 0.7071 0.7071 -486.2096 -220.8539)" class="st10" width="12.4" height="12.8"/>
<rect x="-524.9" y="461.1" transform="matrix(0.7071 -0.7071 0.7071 0.7071 -482.4685 -229.8858)" class="st10" width="12.4" height="12.8"/>
<rect x="-534" y="452" transform="matrix(0.7071 -0.7071 0.7071 0.7071 -478.7273 -238.9178)" class="st10" width="12.4" height="12.8"/>
<rect x="-471.5" y="461.8" transform="matrix(0.7071 -0.7071 0.7071 0.7071 -467.3761 -191.8896)" class="st10" width="12.4" height="12.8"/>
<path class="st10" d="M-344.5,374.5l2.4-2.4l-0.8-0.8C-343.3,372.4-343.8,373.5-344.5,374.5z"/>
<rect x="-445.2" y="435.5" transform="matrix(0.7071 -0.7071 0.7071 0.7071 -441.0603 -180.9892)" class="st10" width="12.4" height="12.8"/>
<rect x="-462.8" y="453.1" transform="matrix(0.7071 -0.7071 0.7071 0.7071 -458.6042 -188.2561)" class="st10" width="12.4" height="12.8"/>
<rect x="-454" y="444.3" transform="matrix(0.7071 -0.7071 0.7071 0.7071 -449.8322 -184.6227)" class="st10" width="12.4" height="12.8"/>
<rect x="-479.8" y="506.2" transform="matrix(0.7071 -0.7071 0.7071 0.7071 -501.1743 -184.7261)" class="st10" width="12.4" height="12.8"/>
<polygon class="st10" points="-503.4,386.3 -502.1,387.6 -500.8,386.3 "/>
<polygon class="st10" points="-520.9,386.3 -519.9,387.3 -518.9,386.3 "/>
<path class="st10" d="M-565.8,342.9l-0.3,0.3c0.4-0.1,0.9-0.2,1.3-0.3H-565.8z"/>
<polygon class="st10" points="-538.5,386.3 -537.7,387.1 -536.9,386.3 "/>
<rect x="-524.7" y="478.9" transform="matrix(0.7071 -0.7071 0.7071 0.7071 -494.9816 -224.4874)" class="st10" width="12.4" height="12.8"/>
<rect x="-533.7" y="469.8" transform="matrix(0.7071 -0.7071 0.7071 0.7071 -491.2404 -233.5193)" class="st10" width="12.4" height="12.8"/>
<rect x="-542.7" y="460.8" transform="matrix(0.7071 -0.7071 0.7071 0.7071 -487.4992 -242.5513)" class="st10" width="12.4" height="12.8"/>
<rect x="-551.8" y="451.8" transform="matrix(0.7071 -0.7071 0.7071 0.7071 -483.7581 -251.5832)" class="st10" width="12.4" height="12.8"/>
<rect x="-560.8" y="442.7" transform="matrix(0.7071 -0.7071 0.7071 0.7071 -480.0169 -260.6151)" class="st10" width="12.4" height="12.8"/>
<rect x="-488.5" y="515" transform="matrix(0.7071 -0.7071 0.7071 0.7071 -509.9462 -188.3595)" class="st10" width="12.4" height="12.8"/>
<rect x="-497.6" y="506" transform="matrix(0.7071 -0.7071 0.7071 0.7071 -506.205 -197.3915)" class="st10" width="12.4" height="12.8"/>
<rect x="-506.6" y="496.9" transform="matrix(0.7071 -0.7071 0.7071 0.7071 -502.4639 -206.4234)" class="st10" width="12.4" height="12.8"/>
<rect x="-515.6" y="487.9" transform="matrix(0.7071 -0.7071 0.7071 0.7071 -498.7227 -215.4554)" class="st10" width="12.4" height="12.8"/>
<polygon class="st10" points="-466.5,388.1 -464.7,386.3 -468.3,386.3 "/>
<path class="st10" d="M-443.8,342.9c1,0.2,2,0.4,2.9,0.6l-0.6-0.6H-443.8z"/>
<polygon class="st10" points="-485.8,386.3 -484.3,387.9 -482.8,386.3 "/>
<rect x="-489.6" y="443.8" transform="matrix(0.7071 -0.7071 0.7071 0.7071 -459.8938 -209.9535)" class="st10" width="12.4" height="12.8"/>
<rect x="-498.6" y="434.7" transform="matrix(0.7071 -0.7071 0.7071 0.7071 -456.1526 -218.9855)" class="st10" width="12.4" height="12.8"/>
<rect x="-480.8" y="435" transform="matrix(0.7071 -0.7071 0.7071 0.7071 -451.1219 -206.3201)" class="st10" width="12.4" height="12.8"/>
<rect x="-480.3" y="470.6" transform="matrix(0.7071 -0.7071 0.7071 0.7071 -476.148 -195.5231)" class="st10" width="12.4" height="12.8"/>
<rect x="-525.2" y="443.3" transform="matrix(0.7071 -0.7071 0.7071 0.7071 -469.9554 -235.2843)" class="st10" width="12.4" height="12.8"/>
<rect x="-534.2" y="434.2" transform="matrix(0.7071 -0.7071 0.7071 0.7071 -466.2142 -244.3163)" class="st10" width="12.4" height="12.8"/>
<rect x="-516.2" y="452.3" transform="matrix(0.7071 -0.7071 0.7071 0.7071 -473.6965 -226.2524)" class="st10" width="12.4" height="12.8"/>
<rect x="-498.1" y="470.4" transform="matrix(0.7071 -0.7071 0.7071 0.7071 -481.1788 -208.1885)" class="st10" width="12.4" height="12.8"/>
<rect x="-507.1" y="461.3" transform="matrix(0.7071 -0.7071 0.7071 0.7071 -477.4377 -217.2204)" class="st10" width="12.4" height="12.8"/>
<rect x="-489.1" y="479.4" transform="matrix(0.7071 -0.7071 0.7071 0.7071 -484.92 -199.1565)" class="st10" width="12.4" height="12.8"/>
<rect x="-489.3" y="461.6" transform="matrix(0.7071 -0.7071 0.7071 0.7071 -472.4069 -204.555)" class="st10" width="12.4" height="12.8"/>
<rect x="-480.6" y="452.8" transform="matrix(0.7071 -0.7071 0.7071 0.7071 -463.6349 -200.9216)" class="st10" width="12.4" height="12.8"/>
<rect x="-498.4" y="452.5" transform="matrix(0.7071 -0.7071 0.7071 0.7071 -468.6657 -213.587)" class="st10" width="12.4" height="12.8"/>
<rect x="-507.4" y="443.5" transform="matrix(0.7071 -0.7071 0.7071 0.7071 -464.9246 -222.6189)" class="st10" width="12.4" height="12.8"/>
<rect x="-471.8" y="444" transform="matrix(0.7071 -0.7071 0.7071 0.7071 -454.863 -197.2881)" class="st10" width="12.4" height="12.8"/>
<rect x="-463" y="435.3" transform="matrix(0.7071 -0.7071 0.7071 0.7071 -446.0911 -193.6546)" class="st10" width="12.4" height="12.8"/>
<rect x="-516.4" y="434.5" transform="matrix(0.7071 -0.7071 0.7071 0.7071 -461.1834 -231.6509)" class="st10" width="12.4" height="12.8"/>
<rect x="-431.6" y="150.9" transform="matrix(0.7071 -0.7071 0.7071 0.7071 -235.8199 -254.6997)" class="st10" width="12.4" height="12.8"/>
<rect x="-374" y="436.6" transform="matrix(0.7071 -0.7071 0.7071 0.7071 -420.9371 -130.3276)" class="st10" width="12.4" height="12.8"/>
<rect x="-422.8" y="142.2" transform="matrix(0.7071 -0.7071 0.7071 0.7071 -227.0479 -251.0663)" class="st10" width="12.4" height="12.8"/>
<rect x="-378.2" y="151.7" transform="matrix(0.7071 -0.7071 0.7071 0.7071 -220.7275 -216.7035)" class="st10" width="12.4" height="12.8"/>
<rect x="-405.2" y="124.6" transform="matrix(0.7071 -0.7071 0.7071 0.7071 -209.5041 -243.7994)" class="st10" width="12.4" height="12.8"/>
<rect x="-387.2" y="142.7" transform="matrix(0.7071 -0.7071 0.7071 0.7071 -216.9864 -225.7355)" class="st10" width="12.4" height="12.8"/>
<rect x="-414" y="133.4" transform="matrix(0.7071 -0.7071 0.7071 0.7071 -218.276 -247.4328)" class="st10" width="12.4" height="12.8"/>
<rect x="-396.2" y="133.6" transform="matrix(0.7071 -0.7071 0.7071 0.7071 -213.2452 -234.7674)" class="st10" width="12.4" height="12.8"/>
<rect x="-382.8" y="445.3" transform="matrix(0.7071 -0.7071 0.7071 0.7071 -429.7091 -133.9611)" class="st10" width="12.4" height="12.8"/>
<rect x="-471" y="497.4" transform="matrix(0.7071 -0.7071 0.7071 0.7071 -492.4023 -181.0926)" class="st10" width="12.4" height="12.8"/>
<rect x="-578.3" y="460.3" transform="matrix(0.7071 -0.7071 0.7071 0.7071 -497.5608 -267.8821)" class="st10" width="12.4" height="12.8"/>
<rect x="-596.4" y="442.2" transform="matrix(0.7071 -0.7071 0.7071 0.7071 -490.0785 -285.946)" class="st10" width="12.4" height="12.8"/>
<rect x="-569.3" y="469.3" transform="matrix(0.7071 -0.7071 0.7071 0.7071 -501.302 -258.8501)" class="st10" width="12.4" height="12.8"/>
<rect x="-560.3" y="478.3" transform="matrix(0.7071 -0.7071 0.7071 0.7071 -505.0431 -249.8182)" class="st10" width="12.4" height="12.8"/>
<rect x="-587.4" y="451.2" transform="matrix(0.7071 -0.7071 0.7071 0.7071 -493.8197 -276.914)" class="st10" width="12.4" height="12.8"/>
<rect x="-435.4" y="498" transform="matrix(0.7071 -0.7071 0.7071 0.7071 -482.3407 -155.7618)" class="st10" width="12.4" height="12.8"/>
<rect x="-444.2" y="506.7" transform="matrix(0.7071 -0.7071 0.7071 0.7071 -491.1127 -159.3953)" class="st10" width="12.4" height="12.8"/>
<rect x="-452.9" y="515.5" transform="matrix(0.7071 -0.7071 0.7071 0.7071 -499.8846 -163.0287)" class="st10" width="12.4" height="12.8"/>
<rect x="-391.5" y="454.1" transform="matrix(0.7071 -0.7071 0.7071 0.7071 -438.481 -137.5945)" class="st10" width="12.4" height="12.8"/>
<rect x="-461.7" y="524.3" transform="matrix(0.7071 -0.7071 0.7071 0.7071 -508.6566 -166.6622)" class="st10" width="12.4" height="12.8"/>
<rect x="-470.5" y="533.1" transform="matrix(0.7071 -0.7071 0.7071 0.7071 -517.4285 -170.2956)" class="st10" width="12.4" height="12.8"/>
<rect x="-400.3" y="462.9" transform="matrix(0.7071 -0.7071 0.7071 0.7071 -447.253 -141.228)" class="st10" width="12.4" height="12.8"/>
<rect x="-426.6" y="489.2" transform="matrix(0.7071 -0.7071 0.7071 0.7071 -473.5688 -152.1283)" class="st10" width="12.4" height="12.8"/>
<rect x="-409.1" y="471.7" transform="matrix(0.7071 -0.7071 0.7071 0.7071 -456.0249 -144.8614)" class="st10" width="12.4" height="12.8"/>
<rect x="-417.9" y="480.4" transform="matrix(0.7071 -0.7071 0.7071 0.7071 -464.7968 -148.4949)" class="st10" width="12.4" height="12.8"/>
<rect x="-515.1" y="523.5" transform="matrix(0.7071 -0.7071 0.7071 0.7071 -523.7489 -204.6584)" class="st10" width="12.4" height="12.8"/>
<rect x="-479.3" y="541.8" transform="matrix(0.7071 -0.7071 0.7071 0.7071 -526.2004 -173.9291)" class="st10" width="12.4" height="12.8"/>
<rect x="-551.2" y="487.4" transform="matrix(0.7071 -0.7071 0.7071 0.7071 -508.7843 -240.7862)" class="st10" width="12.4" height="12.8"/>
<rect x="-524.2" y="514.5" transform="matrix(0.7071 -0.7071 0.7071 0.7071 -520.0078 -213.6904)" class="st10" width="12.4" height="12.8"/>
<rect x="-542.2" y="496.4" transform="matrix(0.7071 -0.7071 0.7071 0.7071 -512.5255 -231.7543)" class="st10" width="12.4" height="12.8"/>
<rect x="-533.2" y="505.4" transform="matrix(0.7071 -0.7071 0.7071 0.7071 -516.2666 -222.7223)" class="st10" width="12.4" height="12.8"/>
<rect x="-488" y="550.6" transform="matrix(0.7071 -0.7071 0.7071 0.7071 -534.9724 -177.5625)" class="st10" width="12.4" height="12.8"/>
<rect x="-506.1" y="532.5" transform="matrix(0.7071 -0.7071 0.7071 0.7071 -527.4901 -195.6264)" class="st10" width="12.4" height="12.8"/>
<rect x="-497.1" y="541.6" transform="matrix(0.7071 -0.7071 0.7071 0.7071 -531.2313 -186.5945)" class="st10" width="12.4" height="12.8"/>
<rect x="-426.4" y="507" transform="matrix(0.7071 -0.7071 0.7071 0.7071 -486.0819 -146.7299)" class="st10" width="12.4" height="12.8"/>
<rect x="-443.9" y="524.5" transform="matrix(0.7071 -0.7071 0.7071 0.7071 -503.6258 -153.9968)" class="st10" width="12.4" height="12.8"/>
<rect x="-461.4" y="542.1" transform="matrix(0.7071 -0.7071 0.7071 0.7071 -521.1697 -161.2637)" class="st10" width="12.4" height="12.8"/>
<rect x="-382.5" y="463.1" transform="matrix(0.7071 -0.7071 0.7071 0.7071 -442.2222 -128.5626)" class="st10" width="12.4" height="12.8"/>
<rect x="-435.1" y="515.8" transform="matrix(0.7071 -0.7071 0.7071 0.7071 -494.8539 -150.3633)" class="st10" width="12.4" height="12.8"/>
<rect x="-400" y="480.7" transform="matrix(0.7071 -0.7071 0.7071 0.7071 -459.7661 -135.8295)" class="st10" width="12.4" height="12.8"/>
<rect x="-417.6" y="498.2" transform="matrix(0.7071 -0.7071 0.7071 0.7071 -477.31 -143.0964)" class="st10" width="12.4" height="12.8"/>
<rect x="-391.3" y="471.9" transform="matrix(0.7071 -0.7071 0.7071 0.7071 -450.9941 -132.196)" class="st10" width="12.4" height="12.8"/>
<rect x="-408.8" y="489.5" transform="matrix(0.7071 -0.7071 0.7071 0.7071 -468.538 -139.4629)" class="st10" width="12.4" height="12.8"/>
<rect x="-452.7" y="533.3" transform="matrix(0.7071 -0.7071 0.7071 0.7071 -512.3977 -157.6302)" class="st10" width="12.4" height="12.8"/>
<rect x="-470.2" y="550.9" transform="matrix(0.7071 -0.7071 0.7071 0.7071 -529.9416 -164.8971)" class="st10" width="12.4" height="12.8"/>
<rect x="-523.9" y="532.3" transform="matrix(0.7071 -0.7071 0.7071 0.7071 -532.5209 -208.2919)" class="st10" width="12.4" height="12.8"/>
<rect x="-532.9" y="523.2" transform="matrix(0.7071 -0.7071 0.7071 0.7071 -528.7797 -217.3238)" class="st10" width="12.4" height="12.8"/>
<rect x="-542" y="514.2" transform="matrix(0.7071 -0.7071 0.7071 0.7071 -525.0386 -226.3558)" class="st10" width="12.4" height="12.8"/>
<rect x="-514.9" y="541.3" transform="matrix(0.7071 -0.7071 0.7071 0.7071 -536.262 -199.2599)" class="st10" width="12.4" height="12.8"/>
<rect x="-479" y="559.6" transform="matrix(0.7071 -0.7071 0.7071 0.7071 -538.7136 -168.5306)" class="st10" width="12.4" height="12.8"/>
<rect x="-505.8" y="550.3" transform="matrix(0.7071 -0.7071 0.7071 0.7071 -540.0032 -190.228)" class="st10" width="12.4" height="12.8"/>
<rect x="-487.8" y="568.4" transform="matrix(0.7071 -0.7071 0.7071 0.7071 -547.4855 -172.1641)" class="st10" width="12.4" height="12.8"/>
<rect x="-496.8" y="559.4" transform="matrix(0.7071 -0.7071 0.7071 0.7071 -543.7443 -181.196)" class="st10" width="12.4" height="12.8"/>
<rect x="-551" y="505.2" transform="matrix(0.7071 -0.7071 0.7071 0.7071 -521.2974 -235.3877)" class="st10" width="12.4" height="12.8"/>
<rect x="-356.2" y="436.8" transform="matrix(0.7071 -0.7071 0.7071 0.7071 -415.9064 -117.6622)" class="st10" width="12.4" height="12.8"/>
<rect x="-365" y="445.6" transform="matrix(0.7071 -0.7071 0.7071 0.7071 -424.6783 -121.2957)" class="st10" width="12.4" height="12.8"/>
<rect x="-373.7" y="454.4" transform="matrix(0.7071 -0.7071 0.7071 0.7071 -433.4503 -124.9291)" class="st10" width="12.4" height="12.8"/>
<rect x="-560" y="496.1" transform="matrix(0.7071 -0.7071 0.7071 0.7071 -517.5562 -244.4197)" class="st10" width="12.4" height="12.8"/>
<rect x="-605.2" y="451" transform="matrix(0.7071 -0.7071 0.7071 0.7071 -498.8505 -289.5794)" class="st10" width="12.4" height="12.8"/>
<rect x="-614.2" y="442" transform="matrix(0.7071 -0.7071 0.7071 0.7071 -495.1093 -298.6114)" class="st10" width="12.4" height="12.8"/>
<rect x="-578.1" y="478.1" transform="matrix(0.7071 -0.7071 0.7071 0.7071 -510.0739 -262.4836)" class="st10" width="12.4" height="12.8"/>
<rect x="-569.1" y="487.1" transform="matrix(0.7071 -0.7071 0.7071 0.7071 -513.8151 -253.4516)" class="st10" width="12.4" height="12.8"/>
<rect x="-587.1" y="469.1" transform="matrix(0.7071 -0.7071 0.7071 0.7071 -506.3328 -271.5155)" class="st10" width="12.4" height="12.8"/>
<rect x="-596.1" y="460" transform="matrix(0.7071 -0.7071 0.7071 0.7071 -502.5916 -280.5475)" class="st10" width="12.4" height="12.8"/>
<polygon class="st10" points="-333.2,363.5 -332.4,362.4 -333.4,363.4 "/>
<polygon class="st10" points="-573.5,386.3 -573.3,386.6 -573.1,386.3 "/>
<rect x="-569.6" y="451.5" transform="matrix(0.7071 -0.7071 0.7071 0.7071 -488.7889 -264.2486)" class="st10" width="12.4" height="12.8"/>
<rect x="-542.5" y="478.6" transform="matrix(0.7071 -0.7071 0.7071 0.7071 -500.0124 -237.1528)" class="st10" width="12.4" height="12.8"/>
<rect x="-560.5" y="460.5" transform="matrix(0.7071 -0.7071 0.7071 0.7071 -492.53 -255.2167)" class="st10" width="12.4" height="12.8"/>
<rect x="-533.4" y="487.6" transform="matrix(0.7071 -0.7071 0.7071 0.7071 -503.7535 -228.1208)" class="st10" width="12.4" height="12.8"/>
<rect x="-551.5" y="469.6" transform="matrix(0.7071 -0.7071 0.7071 0.7071 -496.2712 -246.1847)" class="st10" width="12.4" height="12.8"/>
<rect x="-578.6" y="442.5" transform="matrix(0.7071 -0.7071 0.7071 0.7071 -485.0477 -273.2806)" class="st10" width="12.4" height="12.8"/>
<polygon class="st10" points="-556,386.3 -555.5,386.8 -555,386.3 "/>
<rect x="-427.1" y="453.6" transform="matrix(0.7071 -0.7071 0.7071 0.7071 -448.5426 -162.9253)" class="st10" width="12.4" height="12.8"/>
<rect x="-453.5" y="479.9" transform="matrix(0.7071 -0.7071 0.7071 0.7071 -474.8584 -173.8257)" class="st10" width="12.4" height="12.8"/>
<rect x="-462.2" y="488.7" transform="matrix(0.7071 -0.7071 0.7071 0.7071 -483.6304 -177.4592)" class="st10" width="12.4" height="12.8"/>
<rect x="-435.9" y="462.4" transform="matrix(0.7071 -0.7071 0.7071 0.7071 -457.3145 -166.5588)" class="st10" width="12.4" height="12.8"/>
<rect x="-444.7" y="471.1" transform="matrix(0.7071 -0.7071 0.7071 0.7071 -466.0865 -170.1922)" class="st10" width="12.4" height="12.8"/>
<polygon class="st10" points="-318.1,342.9 -318.7,342.9 -318.3,343.3 "/>
<rect x="-409.6" y="436" transform="matrix(0.7071 -0.7071 0.7071 0.7071 -430.9987 -155.6584)" class="st10" width="12.4" height="12.8"/>
<rect x="-418.4" y="444.8" transform="matrix(0.7071 -0.7071 0.7071 0.7071 -439.7707 -159.2919)" class="st10" width="12.4" height="12.8"/>
<rect x="-524.4" y="496.7" transform="matrix(0.7071 -0.7071 0.7071 0.7071 -507.4947 -219.0889)" class="st10" width="12.4" height="12.8"/>
<rect x="-515.4" y="505.7" transform="matrix(0.7071 -0.7071 0.7071 0.7071 -511.2358 -210.0569)" class="st10" width="12.4" height="12.8"/>
<rect x="-413.8" y="151.2" transform="matrix(0.7071 -0.7071 0.7071 0.7071 -230.7891 -242.0343)" class="st10" width="12.4" height="12.8"/>
<rect x="-405" y="142.4" transform="matrix(0.7071 -0.7071 0.7071 0.7071 -222.0172 -238.4009)" class="st10" width="12.4" height="12.8"/>
<rect x="-396" y="151.4" transform="matrix(0.7071 -0.7071 0.7071 0.7071 -225.7583 -229.3689)" class="st10" width="12.4" height="12.8"/>
<rect x="-470.7" y="515.3" transform="matrix(0.7071 -0.7071 0.7071 0.7071 -504.9154 -175.6941)" class="st10" width="12.4" height="12.8"/>
<rect x="-444.4" y="488.9" transform="matrix(0.7071 -0.7071 0.7071 0.7071 -478.5996 -164.7938)" class="st10" width="12.4" height="12.8"/>
<rect x="-453.2" y="497.7" transform="matrix(0.7071 -0.7071 0.7071 0.7071 -487.3715 -168.4272)" class="st10" width="12.4" height="12.8"/>
<rect x="-462" y="506.5" transform="matrix(0.7071 -0.7071 0.7071 0.7071 -496.1435 -172.0607)" class="st10" width="12.4" height="12.8"/>
<rect x="-426.9" y="471.4" transform="matrix(0.7071 -0.7071 0.7071 0.7071 -461.0557 -157.5268)" class="st10" width="12.4" height="12.8"/>
<rect x="-435.7" y="480.2" transform="matrix(0.7071 -0.7071 0.7071 0.7071 -469.8276 -161.1603)" class="st10" width="12.4" height="12.8"/>
<rect x="-391.8" y="436.3" transform="matrix(0.7071 -0.7071 0.7071 0.7071 -425.9679 -142.993)" class="st10" width="12.4" height="12.8"/>
<rect x="-418.1" y="462.6" transform="matrix(0.7071 -0.7071 0.7071 0.7071 -452.2838 -153.8934)" class="st10" width="12.4" height="12.8"/>
<rect x="-400.6" y="445.1" transform="matrix(0.7071 -0.7071 0.7071 0.7071 -434.7399 -146.6265)" class="st10" width="12.4" height="12.8"/>
<rect x="-409.3" y="453.8" transform="matrix(0.7071 -0.7071 0.7071 0.7071 -443.5118 -150.2599)" class="st10" width="12.4" height="12.8"/>
<rect x="-479.5" y="524" transform="matrix(0.7071 -0.7071 0.7071 0.7071 -513.6874 -179.3276)" class="st10" width="12.4" height="12.8"/>
<polygon class="st10" points="-301.9,359.7 -297.7,363.9 -289,355.1 -294.5,349.6 "/>
<rect x="-506.3" y="514.7" transform="matrix(0.7071 -0.7071 0.7071 0.7071 -514.977 -201.0249)" class="st10" width="12.4" height="12.8"/>
<rect x="-488.3" y="532.8" transform="matrix(0.7071 -0.7071 0.7071 0.7071 -522.4593 -182.961)" class="st10" width="12.4" height="12.8"/>
<rect x="-497.3" y="523.8" transform="matrix(0.7071 -0.7071 0.7071 0.7071 -518.7181 -191.993)" class="st10" width="12.4" height="12.8"/>
<rect x="-393.4" y="329.5" transform="matrix(0.7071 -0.7071 0.7071 0.7071 -350.8893 -175.384)" class="st1" width="12.4" height="12.8"/>
<rect x="-410.9" y="347" transform="matrix(0.7071 -0.7071 0.7071 0.7071 -368.4332 -182.6509)" class="st1" width="12.4" height="12.8"/>
<polygon class="st11" points="-381,320.7 -387.3,327 -378.2,336 -369.5,327.2 -376,320.7 "/>
<rect x="-419.7" y="355.8" transform="matrix(0.7071 -0.7071 0.7071 0.7071 -377.2052 -186.2843)" class="st11" width="12.4" height="12.8"/>
<path class="st1" d="M-398.1,386.3l-6.2-6.2l-4.5,4.5C-405.5,385.7-401.9,386.3-398.1,386.3z"/>
<polygon class="st1" points="-387.3,327 -381,320.7 -393.6,320.7 "/>
<path class="st11" d="M-416.6,326.6c-1.2,0.9-2.3,1.9-3.2,2.9l6,6l8.8-8.8l-4.1-4.1C-411.9,323.6-414.4,324.9-416.6,326.6z"/>
<path class="st11" d="M-397.9,320.7c-0.4,0-0.8,0-1.2,0l-6,6l9,9l8.8-8.8l-6.3-6.3H-397.9z"/>
<path class="st1" d="M-368.9,386.3c1.9,0,3.7-0.1,5.5-0.4l-5.3-5.3l-5.7,5.7H-368.9z"/>
<polygon class="st1" points="-290.7,320.7 -305.8,320.7 -298.3,328.3 "/>
<path class="st1" d="M-422.5,362.2l0.2-0.2l-0.2-0.2C-422.6,362-422.5,362.1-422.5,362.2z"/>
<rect x="-419.9" y="338" transform="matrix(0.7071 -0.7071 0.7071 0.7071 -364.692 -191.6828)" class="st11" width="12.4" height="12.8"/>
<path class="st1" d="M-425.2,346.9v7.6c1.6,2.6,2.4,5.1,2.7,7.4l0.2,0.2l8.8-8.8l-9-9L-425.2,346.9z"/>
<path class="st1" d="M-405.1,326.7l6-6c-3.6,0.1-7,0.7-10.1,1.9L-405.1,326.7z"/>
<rect x="-411.2" y="329.2" transform="matrix(0.7071 -0.7071 0.7071 0.7071 -355.9201 -188.0494)" class="st1" width="12.4" height="12.8"/>
<polygon class="st1" points="-344.9,320.7 -358.5,320.7 -351.7,327.5 "/>
<path class="st11" d="M-425.2,342.6v4.2l2.6-2.6l-2.6-2.6C-425.2,342-425.2,342.3-425.2,342.6z"/>
<polygon class="st1" points="-326.8,320.7 -340.9,320.7 -333.9,327.7 "/>
<polygon class="st1" points="-345.5,386.3 -348.1,383.7 -349.9,386.3 "/>
<polygon class="st11" points="-336.3,342.9 -342.6,336.5 -349,342.9 "/>
<path class="st1" d="M-422.5,362.2c0.1,0.7,0.1,1.5,0.1,2.1c0,2.1-0.3,4.5-1.4,7.2c0.8,2,2.1,4.1,4,6.1l6.5-6.5l-9-9L-422.5,362.2z"
	/>
<path class="st1" d="M-425.2,341.7l2.6,2.6l8.8-8.8l-6-6C-423.8,333.7-425,338.2-425.2,341.7z"/>
<polygon class="st1" points="-380.6,386.3 -386.5,380.4 -392.4,386.3 "/>
<polygon class="st1" points="-308.7,320.7 -323.4,320.7 -316.1,328 "/>
<path class="st11" d="M-342.9,371.4c1-2.6,1.4-5,1.4-7c0-2.5-0.5-5.6-2.2-8.7l-7.5,7.5L-342.9,371.4z"/>
<rect x="-402.1" y="338.3" transform="matrix(0.7071 -0.7071 0.7071 0.7071 -359.6613 -179.0174)" class="st11" width="12.4" height="12.8"/>
<rect x="-366.3" y="356.6" transform="matrix(0.7071 -0.7071 0.7071 0.7071 -362.1128 -148.2881)" class="st11" width="12.4" height="12.8"/>
<path class="st1" d="M-351.2,363.1l-8.8,8.8l9,9l6.4-6.4c0.7-1.1,1.2-2.1,1.6-3.2L-351.2,363.1z"/>
<polygon class="st11" points="-386.5,380.4 -380.6,386.3 -374.4,386.3 -368.7,380.6 -377.7,371.6 "/>
<polygon class="st1" points="-332.4,362.4 -324.6,354.6 -325.8,353.4 "/>
<rect x="-375" y="365.4" transform="matrix(0.7071 -0.7071 0.7071 0.7071 -370.8847 -151.9216)" class="st1" width="12.4" height="12.8"/>
<polygon class="st11" points="-325.8,353.4 -324.6,354.6 -315.8,345.8 -318.3,343.3 "/>
<polygon class="st11" points="-316.1,328 -307,337 -298.3,328.3 -305.8,320.7 -308.7,320.7 "/>
<path class="st11" d="M-359.9,371.9l-8.8,8.8l5.3,5.3c4.6-0.7,8.7-2.3,12.3-4.8l0.2-0.2L-359.9,371.9z"/>
<polygon class="st1" points="-324.8,336.8 -318.7,342.9 -318.1,342.9 -318.3,343.3 -315.8,345.8 -307,337 -316.1,328 "/>
<path class="st1" d="M-350.1,348.3c-0.8-0.6-1.7-1.2-2.6-1.7l-7.5,7.5l9,9l7.5-7.5C-345,353.1-347,350.6-350.1,348.3z"/>
<path class="st11" d="M-362.9,342.9h9.1l-6.6-6.6l-8.8,8.8l9,9l7.5-7.5C-355.8,344.7-359.2,343.5-362.9,342.9z"/>
<rect x="-375.3" y="347.5" transform="matrix(0.7071 -0.7071 0.7071 0.7071 -358.3716 -157.3201)" class="st1" width="12.4" height="12.8"/>
<rect x="-384.1" y="356.3" transform="matrix(0.7071 -0.7071 0.7071 0.7071 -367.1436 -160.9535)" class="st11" width="12.4" height="12.8"/>
<rect x="-392.8" y="365.1" transform="matrix(0.7071 -0.7071 0.7071 0.7071 -375.9155 -164.587)" class="st1" width="12.4" height="12.8"/>
<polygon class="st11" points="-318.7,342.9 -324.8,336.8 -330.9,342.9 "/>
<polygon class="st1" points="-342.6,336.5 -336.3,342.9 -330.9,342.9 -324.8,336.8 -333.9,327.7 "/>
<polygon class="st11" points="-333.9,327.7 -324.8,336.8 -316.1,328 -323.4,320.7 -326.8,320.7 "/>
<path class="st1" d="M-351.1,381.1c0.1-0.1,0.2-0.1,0.2-0.2l0,0L-351.1,381.1z"/>
<path class="st11" d="M-404.3,380.1l6.2,6.2c0.1,0,0.2,0,0.3,0h5.4l5.9-5.9l-9-9L-404.3,380.1z"/>
<polygon class="st1" points="-306.8,354.8 -301.9,359.7 -294.5,349.6 -298,346.1 "/>
<polygon class="st11" points="-315.5,363.6 -309.3,369.8 -301.9,359.7 -306.8,354.8 "/>
<polygon class="st11" points="-298,346.1 -294.5,349.6 -287.1,339.5 -289.2,337.3 "/>
<polygon class="st1" points="-324.3,372.4 -316.7,380 -309.3,369.8 -315.5,363.6 "/>
<polygon class="st1" points="-279.6,329.4 -275.1,323.2 -280.5,328.5 "/>
<polygon class="st1" points="-288.3,320.7 -280.5,328.5 -275.1,323.2 -273.3,320.7 "/>
<polygon class="st11" points="-333.1,381.2 -327.9,386.3 -321.4,386.3 -316.7,380 -324.3,372.4 "/>
<polygon class="st1" points="-289.2,337.3 -287.1,339.5 -279.6,329.4 -280.5,328.5 "/>
<rect x="-313.1" y="339.6" transform="matrix(0.7071 -0.7071 0.7071 0.7071 -334.5073 -115.6904)" class="st11" width="12.4" height="12.8"/>
<polygon class="st1" points="-338.2,386.3 -327.9,386.3 -333.1,381.2 "/>
<rect x="-321.9" y="348.3" transform="matrix(0.7071 -0.7071 0.7071 0.7071 -343.2793 -119.3238)" class="st1" width="12.4" height="12.8"/>
<polygon class="st11" points="-332.4,362.4 -333.2,363.5 -324.3,372.4 -315.5,363.6 -324.6,354.6 "/>
<polygon class="st1" points="-340.6,373.6 -333.1,381.2 -324.3,372.4 -333.2,363.5 "/>
<path class="st1" d="M-344.5,374.5l-6.4,6.4l0,0c0.2-0.2,0.5-0.3,0.7-0.5C-347.6,378.5-345.8,376.5-344.5,374.5z"/>
<rect x="-304.3" y="330.8" transform="matrix(0.7071 -0.7071 0.7071 0.7071 -325.7354 -112.0569)" class="st1" width="12.4" height="12.8"/>
<polygon class="st11" points="-340.6,373.6 -348.1,383.7 -345.5,386.3 -338.2,386.3 -333.1,381.2 "/>
<polygon class="st11" points="-298.3,328.3 -289.2,337.3 -280.5,328.5 -288.3,320.7 -290.7,320.7 "/>
<rect x="-410.6" y="364.8" transform="matrix(0.7071 -0.7071 0.7071 0.7071 -380.9463 -177.2524)" class="st1" width="12.4" height="12.8"/>
<polygon class="st1" points="-360.4,336.3 -353.8,342.9 -349,342.9 -342.6,336.5 -351.7,327.5 "/>
<polygon class="st1" points="-369.5,327.2 -362.9,320.7 -376,320.7 "/>
<path class="st11" d="M-419.8,377.6c0.9,1,2,1.9,3.2,2.8c2.4,1.8,5,3.2,7.9,4.1l4.5-4.5l-9-9L-419.8,377.6z"/>
<rect x="-375.6" y="329.7" transform="matrix(0.7071 -0.7071 0.7071 0.7071 -345.8585 -162.7186)" class="st1" width="12.4" height="12.8"/>
<polygon class="st11" points="-351.7,327.5 -342.6,336.5 -333.9,327.7 -340.9,320.7 -344.9,320.7 "/>
<polygon class="st11" points="-358.5,320.7 -362.9,320.7 -369.5,327.2 -360.4,336.3 -351.7,327.5 "/>
<rect x="-401.9" y="356.1" transform="matrix(0.7071 -0.7071 0.7071 0.7071 -372.1743 -173.6189)" class="st11" width="12.4" height="12.8"/>
<rect x="-384.3" y="338.5" transform="matrix(0.7071 -0.7071 0.7071 0.7071 -354.6305 -166.352)" class="st11" width="12.4" height="12.8"/>
<rect x="-393.1" y="347.3" transform="matrix(0.7071 -0.7071 0.7071 0.7071 -363.4024 -169.9855)" class="st1" width="12.4" height="12.8"/>
<polygon class="st11" points="-529.7,324.9 -533.9,320.7 -543.6,320.7 -547.5,324.6 -538.5,333.7 "/>
<polygon class="st1" points="-446.2,320.7 -440.7,326.2 -435.2,320.7 "/>
<polygon class="st1" points="-450.7,386.3 -457.7,379.3 -464.7,386.3 "/>
<rect x="-446.5" y="346.5" transform="matrix(0.7071 -0.7071 0.7071 0.7071 -378.4948 -207.9817)" class="st1" width="12.4" height="12.8"/>
<polygon class="st1" points="-463.7,320.7 -458.5,325.9 -453.3,320.7 "/>
<rect x="-562.4" y="335.9" transform="matrix(0.7071 -0.7071 0.7071 0.7071 -404.9384 -293.0061)" class="st11" width="12.4" height="12.8"/>
<rect x="-553.6" y="327.1" transform="matrix(0.7071 -0.7071 0.7071 0.7071 -396.1664 -289.3727)" class="st1" width="12.4" height="12.8"/>
<polygon class="st1" points="-475.5,379.1 -482.8,386.3 -468.3,386.3 "/>
<path class="st1" d="M-440.9,343.5l0.5,0.5l0.3-0.3C-440.4,343.7-440.7,343.6-440.9,343.5z"/>
<polygon class="st11" points="-485.1,334.4 -476.3,325.7 -481.3,320.7 -489.4,320.7 -494.1,325.4 "/>
<polygon class="st1" points="-511.1,378.6 -518.9,386.3 -503.4,386.3 "/>
<path class="st11" d="M-428.7,350.3c-0.7-0.7-1.5-1.3-2.4-2c-2.7-2.1-5.8-3.6-9.2-4.6l-0.3,0.3l9,9L-428.7,350.3z"/>
<polygon class="st11" points="-428.6,320.7 -426.3,323 -424.6,320.7 "/>
<polygon class="st1" points="-546.7,378 -555,386.3 -538.5,386.3 "/>
<polygon class="st11" points="-475.5,379.1 -468.3,386.3 -464.7,386.3 -457.7,379.3 -466.7,370.3 "/>
<rect x="-464.1" y="364.1" transform="matrix(0.7071 -0.7071 0.7071 0.7071 -396.0387 -215.2486)" class="st1" width="12.4" height="12.8"/>
<path class="st1" d="M-564.8,360l8.8-8.8l-9-9l-0.7,0.7h1.1c-0.4,0.1-0.9,0.2-1.3,0.3l-7.8,7.8L-564.8,360z"/>
<polygon class="st11" points="-565.3,324.4 -569,320.7 -578.9,320.7 -578.9,328.3 -574.1,333.1 "/>
<polygon class="st1" points="-578.9,328.3 -578.9,337.9 -574.1,333.1 "/>
<polygon class="st11" points="-556.3,333.4 -547.5,324.6 -551.5,320.7 -561.6,320.7 -565.3,324.4 "/>
<path class="st1" d="M-529.8,320.7h-4.1l4.2,4.2l4-4C-527.1,320.8-528.4,320.7-529.8,320.7z"/>
<polygon class="st1" points="-561.6,320.7 -569,320.7 -565.3,324.4 "/>
<rect x="-571.4" y="326.9" transform="matrix(0.7071 -0.7071 0.7071 0.7071 -401.1972 -302.0381)" class="st1" width="12.4" height="12.8"/>
<polygon class="st11" points="-458.5,325.9 -463.7,320.7 -471.3,320.7 -476.3,325.7 -467.3,334.7 "/>
<polygon class="st1" points="-551.5,320.7 -547.5,324.6 -543.6,320.7 "/>
<rect x="-579.9" y="353.5" transform="matrix(0.7071 -0.7071 0.7071 0.7071 -422.4822 -300.273)" class="st11" width="12.4" height="12.8"/>
<polygon class="st11" points="-565.8,342.9 -565.1,342.2 -574.1,333.1 -578.9,337.9 -578.9,342.9 "/>
<polygon class="st11" points="-586.1,373.7 -586.1,381.3 -582.3,377.5 "/>
<path class="st11" d="M-497.5,358.7c1.2,0.9,2.5,1.7,3.8,2.4l0.1-0.1l-9-9l-0.6,0.6C-502,354.7-500.1,356.8-497.5,358.7z"/>
<polygon class="st1" points="-481.3,320.7 -476.3,325.7 -471.3,320.7 "/>
<path class="st1" d="M-586.1,373.7l3.8,3.8l8.8-8.8l-9-9l-3.5,3.5c0,0.4,0,0.8,0,1.2V373.7z"/>
<path class="st1" d="M-573.8,350.9l-3.1-3.1c-0.2,0.1-0.4,0.3-0.6,0.4c-3.9,2.9-6.1,6.2-7.3,9.2l2.2,2.2L-573.8,350.9z"/>
<rect x="-482.4" y="328.2" transform="matrix(0.7071 -0.7071 0.7071 0.7071 -376.0433 -238.711)" class="st1" width="12.4" height="12.8"/>
<polygon class="st1" points="-528.9,378.3 -536.9,386.3 -520.9,386.3 "/>
<path class="st11" d="M-584.8,357.5c-0.8,2-1.2,4-1.3,5.7l3.5-3.5L-584.8,357.5z"/>
<polygon class="st11" points="-518.9,386.3 -511.1,378.6 -520.2,369.5 -528.9,378.3 -520.9,386.3 "/>
<rect x="-491.1" y="337" transform="matrix(0.7071 -0.7071 0.7071 0.7071 -384.8152 -242.3445)" class="st11" width="12.4" height="12.8"/>
<rect x="-499.9" y="345.7" transform="matrix(0.7071 -0.7071 0.7071 0.7071 -393.5872 -245.9779)" class="st1" width="12.4" height="12.8"/>
<path class="st11" d="M-566,343.1c-4,0.8-7.7,2.4-10.9,4.7l3.1,3.1L-566,343.1z"/>
<polygon class="st1" points="-502.4,369.8 -508,364.1 -514.8,364.1 -520.2,369.5 -511.1,378.6 "/>
<polygon class="st11" points="-508,364.1 -502.4,369.8 -496.7,364.1 "/>
<path class="st11" d="M-514.8,364.1h-9.1c4.2-0.7,8-2.2,11.4-4.4l-8-8l-8.8,8.8l9,9L-514.8,364.1z"/>
<polygon class="st11" points="-555,386.3 -546.7,378 -555.8,369 -564.5,377.8 -556,386.3 "/>
<rect x="-544.3" y="354" transform="matrix(0.7071 -0.7071 0.7071 0.7071 -412.4207 -274.9422)" class="st11" width="12.4" height="12.8"/>
<path class="st11" d="M-448.9,370.6l-8.8,8.8l7,7h0.9c1.1,0,2.2-0.1,3.3-0.2l6.6-6.6L-448.9,370.6z"/>
<rect x="-526.8" y="336.4" transform="matrix(0.7071 -0.7071 0.7071 0.7071 -394.8768 -267.6753)" class="st11" width="12.4" height="12.8"/>
<rect x="-535.5" y="345.2" transform="matrix(0.7071 -0.7071 0.7071 0.7071 -403.6487 -271.3087)" class="st1" width="12.4" height="12.8"/>
<polygon class="st1" points="-564.5,377.8 -573.1,386.3 -556,386.3 "/>
<polygon class="st1" points="-493.3,378.8 -500.8,386.3 -485.8,386.3 "/>
<rect x="-481.9" y="363.8" transform="matrix(0.7071 -0.7071 0.7071 0.7071 -401.0695 -227.914)" class="st1" width="12.4" height="12.8"/>
<rect x="-473.3" y="337.2" transform="matrix(0.7071 -0.7071 0.7071 0.7071 -379.7844 -229.6791)" class="st11" width="12.4" height="12.8"/>
<rect x="-464.6" y="328.4" transform="matrix(0.7071 -0.7071 0.7071 0.7071 -371.0125 -226.0456)" class="st1" width="12.4" height="12.8"/>
<polygon class="st11" points="-482.8,386.3 -475.5,379.1 -484.6,370 -493.3,378.8 -485.8,386.3 "/>
<polygon class="st11" points="-440.7,326.2 -446.2,320.7 -453.3,320.7 -458.5,325.9 -449.5,335 "/>
<rect x="-500.2" y="327.9" transform="matrix(0.7071 -0.7071 0.7071 0.7071 -381.074 -251.3764)" class="st1" width="12.4" height="12.8"/>
<polygon class="st11" points="-498.8,320.7 -506.1,320.7 -506.1,330.9 -502.9,334.2 -494.1,325.4 "/>
<rect x="-508.9" y="336.7" transform="matrix(0.7071 -0.7071 0.7071 0.7071 -389.846 -255.0099)" class="st11" width="12.4" height="12.8"/>
<path class="st1" d="M-511,358.7c3.3-2.5,5.4-5.2,6.7-7.9c0.3,0.6,0.6,1.2,1,1.8l0.6-0.6l-9-9l-8.8,8.8l8,8
	C-511.9,359.4-511.5,359.1-511,358.7z"/>
<rect x="-455.3" y="355.3" transform="matrix(0.7071 -0.7071 0.7071 0.7071 -387.2667 -211.6152)" class="st11" width="12.4" height="12.8"/>
<path class="st11" d="M-439.9,379.6l3.8,3.8c1.8-0.8,3.5-1.8,5.1-3c2-1.5,3.6-3.1,4.8-4.7l-4.9-4.9L-439.9,379.6z"/>
<path class="st1" d="M-431.1,370.8l4.9,4.9c1.1-1.4,1.8-2.8,2.4-4.2c-1-2.4-1.3-4.7-1.4-6.6L-431.1,370.8z"/>
<rect x="-535.3" y="363" transform="matrix(0.7071 -0.7071 0.7071 0.7071 -416.1618 -265.9103)" class="st1" width="12.4" height="12.8"/>
<path class="st1" d="M-446.5,386.2c3.8-0.3,7.2-1.2,10.4-2.7l-3.8-3.8L-446.5,386.2z"/>
<path class="st1" d="M-502.9,334.2l-3.3-3.3v0.5c-1.2-1.6-2.8-3.3-4.9-4.8c-0.4-0.3-0.9-0.6-1.4-0.9l-8.3,8.3l9,9L-502.9,334.2z"/>
<rect x="-553.1" y="362.8" transform="matrix(0.7071 -0.7071 0.7071 0.7071 -421.1926 -278.5757)" class="st1" width="12.4" height="12.8"/>
<rect x="-553.3" y="344.9" transform="matrix(0.7071 -0.7071 0.7071 0.7071 -408.6795 -283.9742)" class="st1" width="12.4" height="12.8"/>
<rect x="-562.1" y="353.7" transform="matrix(0.7071 -0.7071 0.7071 0.7071 -417.4514 -287.6076)" class="st11" width="12.4" height="12.8"/>
<rect x="-570.9" y="362.5" transform="matrix(0.7071 -0.7071 0.7071 0.7071 -426.2234 -291.2411)" class="st1" width="12.4" height="12.8"/>
<rect x="-544.6" y="336.2" transform="matrix(0.7071 -0.7071 0.7071 0.7071 -399.9076 -280.3407)" class="st11" width="12.4" height="12.8"/>
<rect x="-535.8" y="327.4" transform="matrix(0.7071 -0.7071 0.7071 0.7071 -391.1356 -276.7072)" class="st1" width="12.4" height="12.8"/>
<rect x="-473.1" y="355" transform="matrix(0.7071 -0.7071 0.7071 0.7071 -392.2975 -224.2806)" class="st11" width="12.4" height="12.8"/>
<path class="st11" d="M-512.4,325.6c-3.9-2.6-8.4-4.2-13.4-4.7l-4,4l9,9L-512.4,325.6z"/>
<polygon class="st11" points="-573.1,386.3 -564.5,377.8 -573.6,368.7 -582.3,377.5 -573.5,386.3 "/>
<rect x="-446.2" y="364.3" transform="matrix(0.7071 -0.7071 0.7071 0.7071 -391.0079 -202.5832)" class="st1" width="12.4" height="12.8"/>
<path class="st1" d="M-428.7,350.3l-2.7,2.7l6.2,6.2v-4.7C-426.1,353-427.2,351.6-428.7,350.3z"/>
<polygon class="st1" points="-573.5,386.3 -582.3,377.5 -586.1,381.3 -586.1,386.3 "/>
<path class="st11" d="M-440.2,361.8l9,9l5.9-5.9c0-0.2,0-0.4,0-0.6v-5.2l-6.2-6.2L-440.2,361.8z"/>
<polygon class="st1" points="-440.9,342.9 -433.7,333.1 -440.7,326.2 -449.5,335 -441.5,342.9 "/>
<polygon class="st11" points="-426.3,323 -428.6,320.7 -435.2,320.7 -440.7,326.2 -433.7,333.1 "/>
<rect x="-482.1" y="346" transform="matrix(0.7071 -0.7071 0.7071 0.7071 -388.5564 -233.3125)" class="st1" width="12.4" height="12.8"/>
<polygon class="st11" points="-500.8,386.3 -493.3,378.8 -502.4,369.8 -511.1,378.6 -503.4,386.3 "/>
<rect x="-464.3" y="346.2" transform="matrix(0.7071 -0.7071 0.7071 0.7071 -383.5256 -220.6471)" class="st1" width="12.4" height="12.8"/>
<path class="st11" d="M-440.4,344l-0.5-0.5c-1-0.3-1.9-0.5-2.9-0.6h2.3l-7.9-7.9l-8.8,8.8l9,9L-440.4,344z"/>
<polygon class="st1" points="-484.6,370 -490.5,364.1 -496.7,364.1 -502.4,369.8 -493.3,378.8 "/>
<polygon class="st1" points="-489.4,320.7 -498.8,320.7 -494.1,325.4 "/>
<path class="st11" d="M-484.7,364.1h-5.8l5.9,5.9l8.8-8.8l-9-9l-8.8,8.8l0.4,0.4C-490.6,362.7-487.8,363.6-484.7,364.1z"/>
<path class="st1" d="M-493.6,361l-0.1,0.1c0.2,0.1,0.3,0.2,0.5,0.3L-493.6,361z"/>
<polygon class="st11" points="-536.9,386.3 -528.9,378.3 -538,369.3 -546.7,378 -538.5,386.3 "/>
<path class="st11" d="M-425.2,359.2v5.2c0,0.2,0,0.4,0,0.6l2.7-2.7c0-0.1,0-0.2,0-0.4L-425.2,359.2z"/>
<rect x="-571" y="-305.7" class="st10" width="5.6" height="0"/>
<rect x="-783.5" y="-1165.5" class="st10" width="5.6" height="0"/>
<rect x="-622.9" y="-810.6" class="st10" width="5.6" height="0"/>
<path class="st1" d="M-423.8,371.5c1.1-2.6,1.4-5.1,1.4-7.2c0-0.7,0-1.4-0.1-2.1l-2.7,2.7C-425.2,366.9-424.8,369.1-423.8,371.5z"/>
<path class="st1" d="M-422.6,361.8c-0.3-2.3-1.1-4.8-2.7-7.4v4.7L-422.6,361.8z"/>
</svg>
